<svg version="1.1" id="Layer_1" xmlns="http://www.w3.org/2000/svg" xmlns:xlink="http://www.w3.org/1999/xlink" x="0px" y="0px"
	 width="100%" viewBox="0 0 204 204" enable-background="new 0 0 204 204" xml:space="preserve">
<path fill="#FFFDFD" opacity="1.000000" stroke="none" 
	d="
M116.000000,205.000000 
	C77.356728,205.000000 39.213463,205.000000 1.035096,205.000000 
	C1.035096,137.065094 1.035096,69.130173 1.035096,1.097626 
	C68.893105,1.097626 136.786392,1.097626 204.839844,1.097626 
	C204.839844,68.999695 204.839844,136.999817 204.839844,205.000000 
	C175.463791,205.000000 145.981888,205.000000 116.000000,205.000000 
M169.567856,172.073029 
	C215.369934,126.907356 207.014130,52.803043 152.366501,20.340040 
	C135.926712,10.574100 117.955490,4.962960 98.924606,7.434134 
	C63.895840,11.982643 34.406742,46.656693 33.772789,82.348770 
	C33.387817,104.022881 47.306213,118.329025 69.019638,118.113251 
	C88.677032,117.917915 104.809082,109.012672 119.417213,96.728508 
	C120.330704,95.960335 121.049026,94.960083 122.514603,93.343880 
	C114.576691,93.343880 107.629921,93.429878 100.686218,93.320648 
	C93.135704,93.201889 89.963921,88.214966 92.870880,81.208961 
	C94.817230,76.518097 98.790565,75.154404 103.387360,75.136841 
	C117.884987,75.081459 132.383331,75.056778 146.880646,75.144196 
	C153.345276,75.183174 156.230499,78.327637 155.179169,84.635925 
	C152.690445,99.569160 150.029175,114.476898 147.175629,129.344666 
	C145.817505,136.420731 141.087585,139.496124 134.593582,138.219635 
	C129.435623,137.205765 127.937286,133.519608 129.399078,125.730019 
	C130.398071,120.406693 131.285126,115.062363 132.346863,109.017860 
	C126.632919,113.328140 121.785477,117.366188 116.568451,120.850937 
	C98.639595,132.826660 79.330521,140.780746 57.272518,140.011978 
	C31.971172,139.130188 15.072905,123.966377 11.750364,98.986610 
	C11.030645,93.575562 11.151608,88.052681 10.828355,81.410019 
	C2.279194,111.465714 11.892909,156.049316 49.710831,181.940033 
	C86.364609,207.033768 135.417175,203.237305 169.567856,172.073029 
z"/>
<path fill="#E01C23" opacity="1.000000" stroke="none" 
	d="
M169.312347,172.319489 
	C135.417175,203.237305 86.364609,207.033768 49.710831,181.940033 
	C11.892909,156.049316 2.279194,111.465714 10.828355,81.410019 
	C11.151608,88.052681 11.030645,93.575562 11.750364,98.986610 
	C15.072905,123.966377 31.971172,139.130188 57.272518,140.011978 
	C79.330521,140.780746 98.639595,132.826660 116.568451,120.850937 
	C121.785477,117.366188 126.632919,113.328140 132.346863,109.017860 
	C131.285126,115.062363 130.398071,120.406693 129.399078,125.730019 
	C127.937286,133.519608 129.435623,137.205765 134.593582,138.219635 
	C141.087585,139.496124 145.817505,136.420731 147.175629,129.344666 
	C150.029175,114.476898 152.690445,99.569160 155.179169,84.635925 
	C156.230499,78.327637 153.345276,75.183174 146.880646,75.144196 
	C132.383331,75.056778 117.884987,75.081459 103.387360,75.136841 
	C98.790565,75.154404 94.817230,76.518097 92.870880,81.208961 
	C89.963921,88.214966 93.135704,93.201889 100.686218,93.320648 
	C107.629921,93.429878 114.576691,93.343880 122.514603,93.343880 
	C121.049026,94.960083 120.330704,95.960335 119.417213,96.728508 
	C104.809082,109.012672 88.677032,117.917915 69.019638,118.113251 
	C47.306213,118.329025 33.387817,104.022881 33.772789,82.348770 
	C34.406742,46.656693 63.895840,11.982643 98.924606,7.434134 
	C117.955490,4.962960 135.926712,10.574100 152.366501,20.340040 
	C207.014130,52.803043 215.369934,126.907356 169.312347,172.319489 
z"/>
</svg>